<?xml version="1.0" encoding="utf-8"?>
<!-- Generator: Adobe Illustrator 19.1.0, SVG Export Plug-In . SVG Version: 6.00 Build 0)  -->
<svg version="1.1" id="Слой_1" xmlns="http://www.w3.org/2000/svg" xmlns:xlink="http://www.w3.org/1999/xlink" x="0px" y="0px"
	 viewBox="0 0 300 300" style="enable-background:new 0 0 500 500;" xml:space="preserve">
<style type="text/css">
	.st0{fill:#FFFFFF;}
</style>
<rect class="st0" x="138" y="116.5" transform="matrix(0.7071 0.7071 -0.7071 0.7071 145.5402 -72.8379)" width="45.5" height="45.5" />
<rect class="st0" x="52.3" y="141.6" transform="matrix(0.7071 0.7071 -0.7071 0.7071 181.0483 12.848)" width="45.5" height="166.7" />
<rect class="st0" x="150" y="0" width="21.4" height="42.8" />
<rect class="st0" x="233.3" y="34.5" transform="matrix(-0.7071 -0.7071 0.7071 -0.7071 377.0973 268.0186)" width="21.4" height="42.8" />
<rect class="st0" x="66.6" y="34.5" transform="matrix(0.7071 -0.7071 0.7071 0.7071 -16.9125 71.0886)" width="21.4" height="42.8" />
<rect class="st0" x="233.3" y="201.2" transform="matrix(0.7071 -0.7071 0.7071 0.7071 -85.918 237.758)" width="21.4" height="42.8" />
<rect class="st0" x="257.2" y="128.5" width="42.8" height="21.4" />
</svg>
